<mxfile host="app.diagrams.net" agent="Mozilla/5.0 (Windows NT 10.0; Win64; x64) AppleWebKit/537.36 (KHTML, like Gecko) Chrome/135.0.0.0 Safari/537.36 Edg/135.0.0.0" version="26.2.9">
  <diagram name="PÃ¡gina-1" id="KJ8N4Ei4UP62Spd2pMQJ">
    <mxGraphModel dx="866" dy="474" grid="1" gridSize="10" guides="1" tooltips="1" connect="1" arrows="1" fold="1" page="1" pageScale="1" pageWidth="827" pageHeight="1169" math="0" shadow="0">
      <root>
        <mxCell id="0" />
        <mxCell id="1" parent="0" />
        <mxCell id="Ac_bERxpYTe7ZZPkRqVz-7" style="edgeStyle=orthogonalEdgeStyle;rounded=0;orthogonalLoop=1;jettySize=auto;html=1;exitX=0.5;exitY=0.5;exitDx=0;exitDy=0;exitPerimeter=0;entryX=1;entryY=0.5;entryDx=0;entryDy=0;endArrow=none;startFill=0;" edge="1" parent="1" source="Ac_bERxpYTe7ZZPkRqVz-1" target="Ac_bERxpYTe7ZZPkRqVz-4">
          <mxGeometry relative="1" as="geometry" />
        </mxCell>
        <mxCell id="Ac_bERxpYTe7ZZPkRqVz-1" value="Recepcionista" style="shape=umlActor;verticalLabelPosition=bottom;verticalAlign=top;html=1;" vertex="1" parent="1">
          <mxGeometry x="780" y="40" width="40" height="90" as="geometry" />
        </mxCell>
        <mxCell id="Ac_bERxpYTe7ZZPkRqVz-2" value="Pesquisar livro" style="ellipse;whiteSpace=wrap;html=1;" vertex="1" parent="1">
          <mxGeometry x="140" y="100" width="140" height="70" as="geometry" />
        </mxCell>
        <mxCell id="Ac_bERxpYTe7ZZPkRqVz-4" value="Cadastrar Estudante" style="ellipse;whiteSpace=wrap;html=1;" vertex="1" parent="1">
          <mxGeometry x="460" y="50" width="140" height="70" as="geometry" />
        </mxCell>
        <mxCell id="Ac_bERxpYTe7ZZPkRqVz-6" style="edgeStyle=orthogonalEdgeStyle;rounded=0;orthogonalLoop=1;jettySize=auto;html=1;exitX=0.5;exitY=0.5;exitDx=0;exitDy=0;exitPerimeter=0;entryX=0;entryY=0.5;entryDx=0;entryDy=0;endArrow=none;startFill=0;" edge="1" parent="1" source="Ac_bERxpYTe7ZZPkRqVz-5" target="Ac_bERxpYTe7ZZPkRqVz-2">
          <mxGeometry relative="1" as="geometry">
            <Array as="points">
              <mxPoint x="130" y="135" />
            </Array>
          </mxGeometry>
        </mxCell>
        <mxCell id="Ac_bERxpYTe7ZZPkRqVz-12" style="rounded=0;orthogonalLoop=1;jettySize=auto;html=1;exitX=0.5;exitY=0.5;exitDx=0;exitDy=0;exitPerimeter=0;entryX=0;entryY=0;entryDx=0;entryDy=0;endArrow=none;startFill=0;" edge="1" parent="1" source="Ac_bERxpYTe7ZZPkRqVz-5" target="Ac_bERxpYTe7ZZPkRqVz-11">
          <mxGeometry relative="1" as="geometry" />
        </mxCell>
        <mxCell id="Ac_bERxpYTe7ZZPkRqVz-5" value="Estudante" style="shape=umlActor;verticalLabelPosition=bottom;verticalAlign=top;html=1;" vertex="1" parent="1">
          <mxGeometry x="40" y="90" width="40" height="90" as="geometry" />
        </mxCell>
        <mxCell id="Ac_bERxpYTe7ZZPkRqVz-10" style="rounded=0;orthogonalLoop=1;jettySize=auto;html=1;exitX=1;exitY=0;exitDx=0;exitDy=0;entryX=0.5;entryY=0.5;entryDx=0;entryDy=0;entryPerimeter=0;endArrow=none;startFill=0;" edge="1" parent="1" source="Ac_bERxpYTe7ZZPkRqVz-8" target="Ac_bERxpYTe7ZZPkRqVz-1">
          <mxGeometry relative="1" as="geometry" />
        </mxCell>
        <mxCell id="Ac_bERxpYTe7ZZPkRqVz-8" value="Registrar emprestimo" style="ellipse;whiteSpace=wrap;html=1;" vertex="1" parent="1">
          <mxGeometry x="540" y="170" width="140" height="70" as="geometry" />
        </mxCell>
        <mxCell id="Ac_bERxpYTe7ZZPkRqVz-11" value="Validar dados" style="ellipse;whiteSpace=wrap;html=1;" vertex="1" parent="1">
          <mxGeometry x="130" y="190" width="140" height="70" as="geometry" />
        </mxCell>
        <mxCell id="Ac_bERxpYTe7ZZPkRqVz-13" value="&amp;lt;&amp;lt;extend&amp;gt;&amp;gt;" style="html=1;verticalAlign=bottom;labelBackgroundColor=none;endArrow=open;endFill=0;dashed=1;rounded=0;entryX=0;entryY=0.5;entryDx=0;entryDy=0;exitX=1;exitY=0.5;exitDx=0;exitDy=0;" edge="1" parent="1" source="Ac_bERxpYTe7ZZPkRqVz-11" target="Ac_bERxpYTe7ZZPkRqVz-8">
          <mxGeometry width="160" relative="1" as="geometry">
            <mxPoint x="330" y="150" as="sourcePoint" />
            <mxPoint x="490" y="150" as="targetPoint" />
          </mxGeometry>
        </mxCell>
        <mxCell id="Ac_bERxpYTe7ZZPkRqVz-14" value="" style="swimlane;startSize=0;" vertex="1" parent="1">
          <mxGeometry x="100" y="50" width="600" height="260" as="geometry" />
        </mxCell>
      </root>
    </mxGraphModel>
  </diagram>
</mxfile>
